# xmcd CD database file
# Copyright (C) 1993-1998 Ti Kan
#
# Track frame offsets:
#	182
#	9777
#	22707
#	31972
#	43495
#	54832
#	64432
#	79122
#	92657
#
# Disc length: 1441 seconds
#
# Revision: 0
# Processed by: cddbd v1.4b41PL1 Copyright (c) Steve Scherf et al.
# Submitted via: CDmax 1.5.3
#
DISCID=62059f09
DTITLE=Porter Wagoner - The Silent Kind
DYEAR=1900
DGENRE=
TTITLE0=The Silent Kind
TTITLE1=Roses Out Of Season
TTITLE2=Uncle Pen
TTITLE3=Fairchild
TTITLE4=Ya'll Come (You All Come)
TTITLE5=One More Dime
TTITLE6=The Cold Hard Facts Of Life
TTITLE7=Malinda
TTITLE8=House Of Shame
EXTD=
EXTT0=
EXTT1=
EXTT2=
EXTT3=
EXTT4=
EXTT5=
EXTT6=
EXTT7=
EXTT8=
PLAYORDER=
